<?xml version="1.0" encoding="UTF-8"?>
<!DOCTYPE svg PUBLIC "-//W3C//DTD SVG 1.1//EN" "http://www.w3.org/Graphics/SVG/1.1/DTD/svg11.dtd">
<svg xmlns="http://www.w3.org/2000/svg" version="1.1" width="250px" height="100px" style="shape-rendering:geometricPrecision; text-rendering:geometricPrecision; image-rendering:optimizeQuality; fill-rule:evenodd; clip-rule:evenodd" xmlns:xlink="http://www.w3.org/1999/xlink">
<g><path style="opacity:0.486" fill="#0f461d" d="M 75.5,17.5 C 74.1667,17.5 72.8333,17.5 71.5,17.5C 71.5,38.8333 71.5,60.1667 71.5,81.5C 72.8333,81.5 74.1667,81.5 75.5,81.5C 74.0813,82.4511 72.4147,82.7845 70.5,82.5C 70.5,60.5 70.5,38.5 70.5,16.5C 72.4147,16.2155 74.0813,16.5489 75.5,17.5 Z"/></g>
<g><path style="opacity:0.878" fill="#218e3b" d="M 75.5,17.5 C 75.5,38.8333 75.5,60.1667 75.5,81.5C 74.1667,81.5 72.8333,81.5 71.5,81.5C 71.5,60.1667 71.5,38.8333 71.5,17.5C 72.8333,17.5 74.1667,17.5 75.5,17.5 Z"/></g>
<g><path style="opacity:0.945" fill="#1e1a18" d="M 38.5,16.5 C 48.9698,15.3806 55.6365,19.7139 58.5,29.5C 60.8273,29.2471 62.8273,29.9137 64.5,31.5C 65.9093,42.877 65.7426,54.2103 64,65.5C 57.358,80.897 46.1913,85.397 30.5,79C 26.2163,75.7119 23.0496,71.5453 21,66.5C 19.2545,54.877 19.0878,43.2103 20.5,31.5C 22.1727,29.9137 24.1727,29.2471 26.5,29.5C 27.7534,22.5816 31.7534,18.2483 38.5,16.5 Z"/></g>
<g><path style="opacity:1" fill="#b1d0b6" d="M 44.5,29.5 C 44.5,30.5 44.5,31.5 44.5,32.5C 46.5,32.5 48.5,32.5 50.5,32.5C 52.4147,32.7845 54.0813,32.4511 55.5,31.5C 57.4832,31.1568 58.8166,31.8235 59.5,33.5C 48.1667,33.5 36.8333,33.5 25.5,33.5C 26.1834,31.8235 27.5168,31.1568 29.5,31.5C 33.1667,32.8333 36.8333,32.8333 40.5,31.5C 42.1993,31.4729 43.5326,30.8062 44.5,29.5 Z"/></g>
<g><path style="opacity:1" fill="#e2d3d1" d="M 55.5,31.5 C 54.0813,32.4511 52.4147,32.7845 50.5,32.5C 48.6325,24.7356 43.9658,22.5689 36.5,26C 34.9297,27.3968 33.5964,28.8968 32.5,30.5C 34.3333,23.9107 38.6666,21.4107 45.5,23C 48.5755,23.911 50.9089,25.7443 52.5,28.5C 52.8333,28.1667 53.1667,27.8333 53.5,27.5C 45.5406,17.8386 38.2072,18.1719 31.5,28.5C 30.8333,28.5 30.1667,28.5 29.5,28.5C 34.2504,19.4179 41.2504,17.2513 50.5,22C 53.8922,24.2854 55.5589,27.452 55.5,31.5 Z"/></g>
<g><path style="opacity:1" fill="#faf9f8" d="M 50.5,32.5 C 48.5,32.5 46.5,32.5 44.5,32.5C 44.5,31.5 44.5,30.5 44.5,29.5C 44.9382,29.5654 45.2716,29.3988 45.5,29C 43.9391,28.6824 42.7724,27.8491 42,26.5C 41.5,27.6667 40.6667,28.5 39.5,29C 40.2524,29.6708 40.5858,30.5041 40.5,31.5C 36.8333,32.8333 33.1667,32.8333 29.5,31.5C 29.5,30.5 29.5,29.5 29.5,28.5C 30.1667,28.5 30.8333,28.5 31.5,28.5C 29.9893,30.8375 30.3227,31.5042 32.5,30.5C 33.5964,28.8968 34.9297,27.3968 36.5,26C 43.9658,22.5689 48.6325,24.7356 50.5,32.5 Z"/></g>
<g><path style="opacity:1" fill="#f2eb30" d="M 44.5,29.5 C 43.5326,30.8062 42.1993,31.4729 40.5,31.5C 40.5858,30.5041 40.2524,29.6708 39.5,29C 40.6667,28.5 41.5,27.6667 42,26.5C 42.7724,27.8491 43.9391,28.6824 45.5,29C 45.2716,29.3988 44.9382,29.5654 44.5,29.5 Z"/></g>
<g><path style="opacity:1" fill="#c4453b" d="M 32.5,30.5 C 30.3227,31.5042 29.9893,30.8375 31.5,28.5C 38.2072,18.1719 45.5406,17.8386 53.5,27.5C 53.1667,27.8333 52.8333,28.1667 52.5,28.5C 50.9089,25.7443 48.5755,23.911 45.5,23C 38.6666,21.4107 34.3333,23.9107 32.5,30.5 Z"/></g>
<g><path style="opacity:0.842" fill="#218e3b" d="M 99.5,43.5 C 100.5,43.5 101.5,43.5 102.5,43.5C 102.5,46.8333 102.5,50.1667 102.5,53.5C 101.5,53.5 100.5,53.5 99.5,53.5C 99.5,50.1667 99.5,46.8333 99.5,43.5 Z"/></g>
<g><path style="opacity:0.899" fill="#1c7b34" d="M 188.5,49.5 C 189.158,48.6016 189.824,47.6016 190.5,46.5C 191.474,48.7427 191.808,51.076 191.5,53.5C 188.052,55.4057 185.219,54.739 183,51.5C 180.823,54.7222 177.99,55.3888 174.5,53.5C 174.5,50.1667 174.5,46.8333 174.5,43.5C 176.798,44.3103 179.132,45.1436 181.5,46C 182.874,49.4101 183.541,49.2434 183.5,45.5C 184.5,45.5 185.5,45.5 186.5,45.5C 186.215,47.288 186.548,48.9547 187.5,50.5C 188.107,50.3764 188.44,50.0431 188.5,49.5 Z M 178.5,48.5 C 179.773,49.0768 179.773,49.7435 178.5,50.5C 177.537,50.0302 177.537,49.3635 178.5,48.5 Z"/></g>
<g><path style="opacity:0.2" fill="#0f441d" d="M 193.5,43.5 C 193.5,46.8333 193.5,50.1667 193.5,53.5C 192.833,53.5 192.167,53.5 191.5,53.5C 191.808,51.076 191.474,48.7427 190.5,46.5C 189.824,47.6016 189.158,48.6016 188.5,49.5C 188.5,48.1667 188.5,46.8333 188.5,45.5C 190.554,45.6347 192.221,44.968 193.5,43.5 Z"/></g>
<g><path style="opacity:0.966" fill="#1b7531" d="M 193.5,43.5 C 194.5,43.5 195.5,43.5 196.5,43.5C 196.351,44.552 196.517,45.552 197,46.5C 199.695,45.0671 202.529,44.0671 205.5,43.5C 205.351,44.552 205.517,45.552 206,46.5C 209.789,46.3775 213.623,46.3775 217.5,46.5C 218.474,48.7427 218.808,51.076 218.5,53.5C 210.125,52.2502 201.791,52.2502 193.5,53.5C 193.5,50.1667 193.5,46.8333 193.5,43.5 Z M 200.5,47.5 C 201.598,48.6009 201.765,49.9343 201,51.5C 199.232,50.3181 199.065,48.9848 200.5,47.5 Z M 209.5,47.5 C 210.376,47.3691 211.043,47.7025 211.5,48.5C 210.86,51.6478 209.86,51.9812 208.5,49.5C 208.863,48.8165 209.196,48.1499 209.5,47.5 Z"/></g>
<g><path style="opacity:0.96" fill="#1a7230" d="M 80.5,43.5 C 82.451,43.2267 83.951,43.8934 85,45.5C 86.5553,43.4848 88.3886,43.1515 90.5,44.5C 87.0047,46.7546 86.838,49.088 90,51.5C 90.3103,46.3392 92.8103,44.6725 97.5,46.5C 99.7408,53.7402 97.5741,55.7402 91,52.5C 88.7328,53.9348 86.7328,53.6015 85,51.5C 83.951,53.1066 82.451,53.7733 80.5,53.5C 80.5,50.1667 80.5,46.8333 80.5,43.5 Z"/></g>
<g><path style="opacity:0.204" fill="#0f441c" d="M 161.5,50.5 C 160.835,48.6309 160.169,46.6309 159.5,44.5C 158.516,47.4281 158.183,50.4281 158.5,53.5C 157.521,50.3752 157.187,47.0419 157.5,43.5C 158.833,43.5 160.167,43.5 161.5,43.5C 161.5,45.8333 161.5,48.1667 161.5,50.5 Z"/></g>
<g><path style="opacity:0.884" fill="#1d7c34" d="M 103.5,45.5 C 104.5,45.5 105.5,45.5 106.5,45.5C 107.167,52.1667 107.833,52.1667 108.5,45.5C 109.5,45.5 110.5,45.5 111.5,45.5C 111.5,48.1667 111.5,50.8333 111.5,53.5C 104.603,55.5708 101.937,52.9042 103.5,45.5 Z"/></g>
<g><path style="opacity:0.874" fill="#1a7230" d="M 126.5,43.5 C 129.343,43.9423 132.009,44.9423 134.5,46.5C 135.251,47.376 135.751,48.376 136,49.5C 136.752,45.5966 138.919,44.5966 142.5,46.5C 143.474,48.7427 143.808,51.076 143.5,53.5C 139.347,53.862 135.347,53.862 131.5,53.5C 131.167,46.8333 130.833,46.8333 130.5,53.5C 126.775,53.5949 123.109,53.7616 119.5,54C 118.721,52.0058 118.387,50.1724 118.5,48.5C 116.783,49.6685 116.116,51.3352 116.5,53.5C 115.167,53.5 113.833,53.5 112.5,53.5C 112.5,50.8333 112.5,48.1667 112.5,45.5C 115.818,45.9392 118.984,45.9392 122,45.5C 123.711,45.4393 125.044,46.1059 126,47.5C 126.49,46.2068 126.657,44.8734 126.5,43.5 Z"/></g>
<g><path style="opacity:0.901" fill="#1b7732" d="M 144.5,45.5 C 151.33,43.9999 154.33,46.6666 153.5,53.5C 152.167,53.5 150.833,53.5 149.5,53.5C 149.408,46.9925 148.742,46.9925 147.5,53.5C 146.5,53.5 145.5,53.5 144.5,53.5C 144.5,50.8333 144.5,48.1667 144.5,45.5 Z"/></g>
<g><path style="opacity:0.871" fill="#1c7a33" d="M 161.5,50.5 C 162.873,50.6567 164.207,50.49 165.5,50C 166.051,48.6015 166.384,47.2682 166.5,46C 172.412,44.8384 174.746,47.3384 173.5,53.5C 168.596,53.9657 163.596,53.9657 158.5,53.5C 158.183,50.4281 158.516,47.4281 159.5,44.5C 160.169,46.6309 160.835,48.6309 161.5,50.5 Z"/></g>
<g><path style="opacity:0.877" fill="#1e8237" d="M 219.5,45.5 C 226.5,43.8333 229.167,46.5 227.5,53.5C 226.5,53.5 225.5,53.5 224.5,53.5C 224.29,47.0339 223.623,47.0339 222.5,53.5C 221.5,53.5 220.5,53.5 219.5,53.5C 219.5,50.8333 219.5,48.1667 219.5,45.5 Z"/></g>
<g><path style="opacity:0.905" fill="#1b7531" d="M 230.5,45.5 C 232.833,45.5 235.167,45.5 237.5,45.5C 237.665,48.5184 237.498,51.5184 237,54.5C 234.085,57.1345 231.252,57.1345 228.5,54.5C 229.112,53.0047 229.112,51.3381 228.5,49.5C 228.803,47.8857 229.47,46.5523 230.5,45.5 Z M 232.5,48.5 C 233.773,49.0768 233.773,49.7435 232.5,50.5C 231.537,50.0302 231.537,49.3635 232.5,48.5 Z"/></g>
<g><path style="opacity:1" fill="#e5ece7" d="M 24.5,33.5 C 24.3335,42.8393 24.5002,52.1726 25,61.5C 25.2401,63.8516 26.0735,65.8516 27.5,67.5C 28.0798,69.7488 29.4131,71.4154 31.5,72.5C 32.6594,74.2503 34.326,75.2503 36.5,75.5C 37.5,76.8333 38.5,76.8333 39.5,75.5C 42.272,76.7671 44.9387,76.7671 47.5,75.5C 53.089,74.2429 56.7556,70.9096 58.5,65.5C 59.2679,64.7375 59.7679,63.7375 60,62.5C 60.4998,52.8391 60.6665,43.1724 60.5,33.5C 61.8271,37.951 62.4937,42.7843 62.5,48C 64.461,58.5113 61.7943,67.5113 54.5,75C 40.8674,82.3218 30.7007,79.1551 24,65.5C 22.9301,59.564 22.4301,53.564 22.5,47.5C 22.5067,42.4492 23.1734,37.7825 24.5,33.5 Z"/></g>
<g><path style="opacity:1" fill="#2f9844" d="M 24.5,33.5 C 24.8333,33.5 25.1667,33.5 25.5,33.5C 36.8333,33.5 48.1667,33.5 59.5,33.5C 59.8333,33.5 60.1667,33.5 60.5,33.5C 60.6665,43.1724 60.4998,52.8391 60,62.5C 59.7679,63.7375 59.2679,64.7375 58.5,65.5C 58.5858,64.5041 58.2524,63.6708 57.5,63C 58.8045,62.196 59.4712,61.0293 59.5,59.5C 59.4513,54.9852 59.2847,50.3185 59,45.5C 57.8755,42.2165 56.8755,38.8831 56,35.5C 54.5,36.3333 53.3333,37.5 52.5,39C 54.0738,40.8259 54.9071,42.9925 55,45.5C 55.1929,50.7503 55.6929,55.917 56.5,61C 53.9747,66.192 50.1414,70.0253 45,72.5C 44.8039,74.1541 45.6372,75.1541 47.5,75.5C 44.9387,76.7671 42.272,76.7671 39.5,75.5C 39.5,74.5 39.5,73.5 39.5,72.5C 38.5,72.5 37.5,72.5 36.5,72.5C 36.5875,69.4017 36.0875,69.0684 35,71.5C 30.811,67.5144 28.6443,62.5144 28.5,56.5C 28.6013,52.9853 28.6013,49.4853 28.5,46C 28.7591,44.7387 29.4258,43.7387 30.5,43C 30.0426,42.586 29.7093,42.086 29.5,41.5C 31.9369,40.1189 33.2702,38.2856 33.5,36C 32.2068,35.51 30.8734,35.3433 29.5,35.5C 29.5713,38.0241 28.5713,40.0241 26.5,41.5C 26.2754,45.1403 26.6087,48.807 27.5,52.5C 27.3333,54.1667 27.1667,55.8333 27,57.5C 26.3457,56.3044 25.8457,56.3044 25.5,57.5C 26.3829,58.548 27.0496,59.7147 27.5,61C 26.6138,63.1118 26.6138,65.2784 27.5,67.5C 26.0735,65.8516 25.2401,63.8516 25,61.5C 24.5002,52.1726 24.3335,42.8393 24.5,33.5 Z"/></g>
<g><path style="opacity:1" fill="#e7e7e7" d="M 48.5,43.5 C 48.67,44.8221 48.3366,45.9887 47.5,47C 48.5,47.5 49.5,48 50.5,48.5C 51.487,51.7683 51.8204,55.1016 51.5,58.5C 50.1779,58.33 49.0113,58.6634 48,59.5C 47.8198,56.0445 47.1532,52.7111 46,49.5C 46.2384,53.1087 46.4051,56.7754 46.5,60.5C 45.5,60.5 44.5,60.5 43.5,60.5C 43.6495,59.448 43.4828,58.448 43,57.5C 39.5884,57.9732 36.4217,58.9732 33.5,60.5C 33.1667,60.5 32.8333,60.5 32.5,60.5C 32.1758,56.4454 32.5091,52.4454 33.5,48.5C 34.086,48.7093 34.586,49.0426 35,49.5C 35.5,48.3333 36.3333,47.5 37.5,47C 36.0267,46.2904 35.3601,45.1238 35.5,43.5C 37.7494,42.7689 39.916,41.7689 42,40.5C 44.4432,41.0304 46.6099,42.0304 48.5,43.5 Z"/></g>
<g><path style="opacity:1" fill="#757176" d="M 50.5,40.5 C 51.7899,41.0577 52.6232,42.0577 53,43.5C 53.8184,49.3487 53.6517,55.0154 52.5,60.5C 52.1667,60.5 51.8333,60.5 51.5,60.5C 51.5,59.8333 51.5,59.1667 51.5,58.5C 51.8204,55.1016 51.487,51.7683 50.5,48.5C 49.5,48 48.5,47.5 47.5,47C 48.3366,45.9887 48.67,44.8221 48.5,43.5C 49.1667,42.5 49.8333,41.5 50.5,40.5 Z"/></g>
<g><path style="opacity:1" fill="#7a7d7a" d="M 35.5,43.5 C 35.3601,45.1238 36.0267,46.2904 37.5,47C 36.3333,47.5 35.5,48.3333 35,49.5C 34.586,49.0426 34.086,48.7093 33.5,48.5C 32.5091,52.4454 32.1758,56.4454 32.5,60.5C 32.5,61.1667 32.1667,61.5 31.5,61.5C 30.1667,55.8333 30.1667,50.1667 31.5,44.5C 31.369,45.2389 31.5357,45.9056 32,46.5C 32.0755,43.5527 33.2422,42.5527 35.5,43.5 Z"/></g>
<g><path style="opacity:1" fill="#6e6497" d="M 50.5,40.5 C 49.8333,41.5 49.1667,42.5 48.5,43.5C 46.6099,42.0304 44.4432,41.0304 42,40.5C 39.916,41.7689 37.7494,42.7689 35.5,43.5C 33.2422,42.5527 32.0755,43.5527 32,46.5C 31.5357,45.9056 31.369,45.2389 31.5,44.5C 36.249,35.5423 42.5823,34.209 50.5,40.5 Z"/></g>
<g><path style="opacity:1" fill="#c1c1c3" d="M 51.5,58.5 C 51.5,59.1667 51.5,59.8333 51.5,60.5C 50.7281,61.6935 49.7281,62.6935 48.5,63.5C 44.3466,63.2639 40.0133,63.2639 35.5,63.5C 34.8333,62.5 34.1667,61.5 33.5,60.5C 36.4217,58.9732 39.5884,57.9732 43,57.5C 43.4828,58.448 43.6495,59.448 43.5,60.5C 44.5,60.5 45.5,60.5 46.5,60.5C 46.4051,56.7754 46.2384,53.1087 46,49.5C 47.1532,52.7111 47.8198,56.0445 48,59.5C 49.0113,58.6634 50.1779,58.33 51.5,58.5 Z"/></g>
<g><path style="opacity:1" fill="#b8b816" d="M 39.5,75.5 C 38.5,76.8333 37.5,76.8333 36.5,75.5C 35.7002,73.2591 34.0336,72.2591 31.5,72.5C 29.4131,71.4154 28.0798,69.7488 27.5,67.5C 26.6138,65.2784 26.6138,63.1118 27.5,61C 27.0496,59.7147 26.3829,58.548 25.5,57.5C 25.8457,56.3044 26.3457,56.3044 27,57.5C 27.1667,55.8333 27.3333,54.1667 27.5,52.5C 26.6087,48.807 26.2754,45.1403 26.5,41.5C 28.5713,40.0241 29.5713,38.0241 29.5,35.5C 30.8734,35.3433 32.2068,35.51 33.5,36C 33.2702,38.2856 31.9369,40.1189 29.5,41.5C 29.7093,42.086 30.0426,42.586 30.5,43C 29.4258,43.7387 28.7591,44.7387 28.5,46C 28.6013,49.4853 28.6013,52.9853 28.5,56.5C 28.6443,62.5144 30.811,67.5144 35,71.5C 36.0875,69.0684 36.5875,69.4017 36.5,72.5C 37.5,72.5 38.5,72.5 39.5,72.5C 39.5,73.5 39.5,74.5 39.5,75.5 Z"/></g>
<g><path style="opacity:1" fill="#8b8616" d="M 32.5,60.5 C 32.8333,60.5 33.1667,60.5 33.5,60.5C 34.1667,61.5 34.8333,62.5 35.5,63.5C 37.1661,65.8284 39.4995,66.8284 42.5,66.5C 45.3077,66.9223 47.3077,65.9223 48.5,63.5C 49.7281,62.6935 50.7281,61.6935 51.5,60.5C 51.8333,60.5 52.1667,60.5 52.5,60.5C 51.7413,66.2319 48.408,69.2319 42.5,69.5C 37.1421,69.1401 33.4754,66.4734 31.5,61.5C 32.1667,61.5 32.5,61.1667 32.5,60.5 Z"/></g>
<g><path style="opacity:1" fill="#766c9f" d="M 48.5,63.5 C 47.3077,65.9223 45.3077,66.9223 42.5,66.5C 39.4995,66.8284 37.1661,65.8284 35.5,63.5C 40.0133,63.2639 44.3466,63.2639 48.5,63.5 Z"/></g>
<g><path style="opacity:1" fill="#b0be17" d="M 58.5,65.5 C 56.7556,70.9096 53.089,74.2429 47.5,75.5C 45.6372,75.1541 44.8039,74.1541 45,72.5C 50.1414,70.0253 53.9747,66.192 56.5,61C 55.6929,55.917 55.1929,50.7503 55,45.5C 54.9071,42.9925 54.0738,40.8259 52.5,39C 53.3333,37.5 54.5,36.3333 56,35.5C 56.8755,38.8831 57.8755,42.2165 59,45.5C 59.2847,50.3185 59.4513,54.9852 59.5,59.5C 59.4712,61.0293 58.8045,62.196 57.5,63C 58.2524,63.6708 58.5858,64.5041 58.5,65.5 Z"/></g>
<g><path style="opacity:1" fill="#319c4e" d="M 31.5,72.5 C 34.0336,72.2591 35.7002,73.2591 36.5,75.5C 34.326,75.2503 32.6594,74.2503 31.5,72.5 Z"/></g>
</svg>
